<svg xmlns="http://www.w3.org/2000/svg" xmlns:xlink="http://www.w3.org/1999/xlink" width="3000" zoomAndPan="magnify" viewBox="0 0 2250 809.999993" height="1080" preserveAspectRatio="xMidYMid meet" version="1.0"><defs><g/><clipPath id="ca23483191"><path d="M 80.734375 213.476562 L 214.984375 213.476562 L 214.984375 613.976562 L 80.734375 613.976562 Z M 80.734375 213.476562 " clip-rule="nonzero"/></clipPath><clipPath id="a3fe6bcdc5"><path d="M 227.898438 213.476562 L 362.148438 213.476562 L 362.148438 613.976562 L 227.898438 613.976562 Z M 227.898438 213.476562 " clip-rule="nonzero"/></clipPath><clipPath id="c614577699"><path d="M 178.160156 412.664062 L 200.660156 412.664062 L 200.660156 435.164062 L 178.160156 435.164062 Z M 178.160156 412.664062 " clip-rule="nonzero"/></clipPath><clipPath id="d8ecadfcdc"><path d="M 245.546875 412.664062 L 268.046875 412.664062 L 268.046875 435.164062 L 245.546875 435.164062 Z M 245.546875 412.664062 " clip-rule="nonzero"/></clipPath></defs><path fill="#ffffff" d="M 394.222656 214.410156 C 396.378906 214.410156 398.449219 214.410156 400.515625 214.410156 C 398.878906 222.6875 399.828125 231.050781 399.742188 239.410156 C 399.65625 247.859375 399.742188 256.308594 399.742188 264.847656 C 399.742188 313.800781 399.742188 362.664062 399.742188 411.617188 C 399.742188 455.78125 399.742188 499.945312 399.742188 544.105469 C 399.742188 564.578125 399.742188 584.960938 399.828125 605.429688 C 399.828125 607.695312 400.085938 609.871094 400.257812 612.308594 C 398.535156 612.308594 396.464844 612.308594 394.742188 612.308594 C 395.773438 603.773438 395.171875 595.152344 395.257812 586.613281 C 395.34375 542.453125 395.257812 498.375 395.257812 454.214844 C 395.257812 443.761719 395.429688 433.394531 395.429688 422.941406 C 395.429688 370.941406 395.34375 319.027344 395.257812 267.023438 C 395.257812 257.269531 395.429688 247.511719 395.429688 237.757812 C 395.429688 231.398438 395.34375 224.953125 395.171875 218.59375 C 395.171875 217.285156 394.566406 215.894531 394.222656 214.410156 Z M 394.222656 214.410156 " fill-opacity="1" fill-rule="nonzero"/><path fill="#ffffff" d="M 397.414062 202.566406 C 399.222656 205.441406 401.550781 206.746094 405 205.441406 C 404.050781 208.140625 403.273438 210.492188 402.414062 213.105469 C 399.222656 213.105469 395.859375 213.105469 392.585938 213.105469 C 391.722656 210.667969 390.859375 208.226562 390 205.613281 C 393.1875 206.574219 395.773438 205.613281 397.414062 202.566406 Z M 397.414062 202.566406 " fill-opacity="1" fill-rule="nonzero"/><path fill="#ffffff" d="M 405 621.28125 C 401.550781 620.148438 399.222656 621.28125 397.5 624.15625 C 395.859375 621.195312 393.273438 620.5 390.171875 620.671875 C 390.859375 618.667969 391.464844 616.753906 392.242188 614.921875 C 392.585938 614.3125 393.535156 613.617188 394.222656 613.53125 C 396.894531 613.355469 399.566406 613.441406 402.328125 613.441406 C 403.1875 616.054688 404.050781 618.496094 405 621.28125 Z M 405 621.28125 " fill-opacity="1" fill-rule="nonzero"/><g fill="#ffffff" fill-opacity="1"><g transform="translate(418.499989, 367.660254)"><g><path d="M 60.796875 -139.90625 C 75.691406 -139.90625 88.738281 -137.050781 99.9375 -131.34375 C 111.144531 -125.644531 119.800781 -117.457031 125.90625 -106.78125 C 132.007812 -96.113281 135.0625 -83.671875 135.0625 -69.453125 C 135.0625 -55.222656 132.007812 -42.875 125.90625 -32.40625 C 119.800781 -21.9375 111.144531 -13.914062 99.9375 -8.34375 C 88.738281 -2.78125 75.691406 0 60.796875 0 L 15.09375 0 L 15.09375 -139.90625 Z M 60.796875 -18.71875 C 77.160156 -18.71875 89.703125 -23.144531 98.421875 -32 C 107.148438 -40.863281 111.515625 -53.347656 111.515625 -69.453125 C 111.515625 -85.679688 107.148438 -98.359375 98.421875 -107.484375 C 89.703125 -116.617188 77.160156 -121.1875 60.796875 -121.1875 L 38.046875 -121.1875 L 38.046875 -18.71875 Z M 60.796875 -18.71875 "/></g></g></g><g fill="#ffffff" fill-opacity="1"><g transform="translate(571.487793, 367.660254)"><g><path d="M 78.90625 1.40625 C 65.882812 1.40625 53.90625 -1.644531 42.96875 -7.75 C 32.039062 -13.851562 23.390625 -22.375 17.015625 -33.3125 C 10.640625 -44.25 7.453125 -56.5625 7.453125 -70.25 C 7.453125 -83.9375 10.640625 -96.210938 17.015625 -107.078125 C 23.390625 -117.953125 32.039062 -126.441406 42.96875 -132.546875 C 53.90625 -138.660156 65.882812 -141.71875 78.90625 -141.71875 C 92.0625 -141.71875 104.109375 -138.660156 115.046875 -132.546875 C 125.984375 -126.441406 134.601562 -117.953125 140.90625 -107.078125 C 147.21875 -96.210938 150.375 -83.9375 150.375 -70.25 C 150.375 -56.5625 147.21875 -44.25 140.90625 -33.3125 C 134.601562 -22.375 125.984375 -13.851562 115.046875 -7.75 C 104.109375 -1.644531 92.0625 1.40625 78.90625 1.40625 Z M 78.90625 -18.515625 C 88.164062 -18.515625 96.414062 -20.628906 103.65625 -24.859375 C 110.90625 -29.085938 116.578125 -35.125 120.671875 -42.96875 C 124.765625 -50.820312 126.8125 -59.914062 126.8125 -70.25 C 126.8125 -80.582031 124.765625 -89.640625 120.671875 -97.421875 C 116.578125 -105.210938 110.90625 -111.1875 103.65625 -115.34375 C 96.414062 -119.5 88.164062 -121.578125 78.90625 -121.578125 C 69.644531 -121.578125 61.390625 -119.5 54.140625 -115.34375 C 46.898438 -111.1875 41.234375 -105.210938 37.140625 -97.421875 C 33.046875 -89.640625 31 -80.582031 31 -70.25 C 31 -59.914062 33.046875 -50.820312 37.140625 -42.96875 C 41.234375 -35.125 46.898438 -29.085938 54.140625 -24.859375 C 61.390625 -20.628906 69.644531 -18.515625 78.90625 -18.515625 Z M 78.90625 -18.515625 "/></g></g></g><g fill="#ffffff" fill-opacity="1"><g transform="translate(739.573098, 367.660254)"><g><path d="M 78.90625 1.40625 C 65.882812 1.40625 53.90625 -1.644531 42.96875 -7.75 C 32.039062 -13.851562 23.390625 -22.375 17.015625 -33.3125 C 10.640625 -44.25 7.453125 -56.5625 7.453125 -70.25 C 7.453125 -83.9375 10.640625 -96.210938 17.015625 -107.078125 C 23.390625 -117.953125 32.039062 -126.441406 42.96875 -132.546875 C 53.90625 -138.660156 65.882812 -141.71875 78.90625 -141.71875 C 92.0625 -141.71875 104.109375 -138.660156 115.046875 -132.546875 C 125.984375 -126.441406 134.601562 -117.953125 140.90625 -107.078125 C 147.21875 -96.210938 150.375 -83.9375 150.375 -70.25 C 150.375 -56.5625 147.21875 -44.25 140.90625 -33.3125 C 134.601562 -22.375 125.984375 -13.851562 115.046875 -7.75 C 104.109375 -1.644531 92.0625 1.40625 78.90625 1.40625 Z M 78.90625 -18.515625 C 88.164062 -18.515625 96.414062 -20.628906 103.65625 -24.859375 C 110.90625 -29.085938 116.578125 -35.125 120.671875 -42.96875 C 124.765625 -50.820312 126.8125 -59.914062 126.8125 -70.25 C 126.8125 -80.582031 124.765625 -89.640625 120.671875 -97.421875 C 116.578125 -105.210938 110.90625 -111.1875 103.65625 -115.34375 C 96.414062 -119.5 88.164062 -121.578125 78.90625 -121.578125 C 69.644531 -121.578125 61.390625 -119.5 54.140625 -115.34375 C 46.898438 -111.1875 41.234375 -105.210938 37.140625 -97.421875 C 33.046875 -89.640625 31 -80.582031 31 -70.25 C 31 -59.914062 33.046875 -50.820312 37.140625 -42.96875 C 41.234375 -35.125 46.898438 -29.085938 54.140625 -24.859375 C 61.390625 -20.628906 69.644531 -18.515625 78.90625 -18.515625 Z M 78.90625 -18.515625 "/></g></g></g><g fill="#ffffff" fill-opacity="1"><g transform="translate(907.658394, 367.660254)"><g><path d="M 87.765625 0 L 55.5625 -55.953125 L 38.046875 -55.953125 L 38.046875 0 L 15.09375 0 L 15.09375 -139.90625 L 63.40625 -139.90625 C 74.144531 -139.90625 83.238281 -138.023438 90.6875 -134.265625 C 98.132812 -130.503906 103.703125 -125.46875 107.390625 -119.15625 C 111.078125 -112.851562 112.921875 -105.8125 112.921875 -98.03125 C 112.921875 -88.90625 110.269531 -80.617188 104.96875 -73.171875 C 99.675781 -65.722656 91.523438 -60.65625 80.515625 -57.96875 L 115.140625 0 Z M 38.046875 -74.28125 L 63.40625 -74.28125 C 72 -74.28125 78.472656 -76.425781 82.828125 -80.71875 C 87.191406 -85.007812 89.375 -90.78125 89.375 -98.03125 C 89.375 -105.28125 87.226562 -110.953125 82.9375 -115.046875 C 78.644531 -119.140625 72.132812 -121.1875 63.40625 -121.1875 L 38.046875 -121.1875 Z M 38.046875 -74.28125 "/></g></g></g><g fill="#ffffff" fill-opacity="1"><g transform="translate(1045.146152, 367.660254)"><g/></g></g><g fill="#ffffff" fill-opacity="1"><g transform="translate(1107.750412, 367.660254)"><g><path d="M 162.453125 -139.90625 L 162.453125 0 L 139.5 0 L 139.5 -95.8125 L 96.828125 0 L 80.921875 0 L 38.046875 -95.8125 L 38.046875 0 L 15.09375 0 L 15.09375 -139.90625 L 39.859375 -139.90625 L 88.96875 -30.1875 L 137.890625 -139.90625 Z M 162.453125 -139.90625 "/></g></g></g><g fill="#ffffff" fill-opacity="1"><g transform="translate(1295.563055, 367.660254)"><g><path d="M 99.4375 -28.578125 L 40.859375 -28.578125 L 30.796875 0 L 6.84375 0 L 56.96875 -140.109375 L 83.53125 -140.109375 L 133.65625 0 L 109.5 0 Z M 93 -47.3125 L 70.25 -112.328125 L 47.3125 -47.3125 Z M 93 -47.3125 "/></g></g></g><g fill="#ffffff" fill-opacity="1"><g transform="translate(1446.135253, 367.660254)"><g><path d="M 61.1875 1.40625 C 51.800781 1.40625 43.347656 -0.234375 35.828125 -3.515625 C 28.316406 -6.804688 22.410156 -11.472656 18.109375 -17.515625 C 13.816406 -23.554688 11.671875 -30.601562 11.671875 -38.65625 L 36.234375 -38.65625 C 36.765625 -32.613281 39.144531 -27.644531 43.375 -23.75 C 47.601562 -19.863281 53.539062 -17.921875 61.1875 -17.921875 C 69.113281 -17.921875 75.289062 -19.832031 79.71875 -23.65625 C 84.144531 -27.476562 86.359375 -32.410156 86.359375 -38.453125 C 86.359375 -43.148438 84.984375 -46.972656 82.234375 -49.921875 C 79.484375 -52.867188 76.0625 -55.148438 71.96875 -56.765625 C 67.875 -58.378906 62.203125 -60.125 54.953125 -62 C 45.828125 -64.414062 38.410156 -66.863281 32.703125 -69.34375 C 27.003906 -71.832031 22.140625 -75.691406 18.109375 -80.921875 C 14.085938 -86.148438 12.078125 -93.128906 12.078125 -101.859375 C 12.078125 -109.910156 14.085938 -116.953125 18.109375 -122.984375 C 22.140625 -129.023438 27.773438 -133.65625 35.015625 -136.875 C 42.265625 -140.101562 50.65625 -141.71875 60.1875 -141.71875 C 73.738281 -141.71875 84.84375 -138.328125 93.5 -131.546875 C 102.15625 -124.765625 106.953125 -115.472656 107.890625 -103.671875 L 82.53125 -103.671875 C 82.125 -108.765625 79.707031 -113.125 75.28125 -116.75 C 70.851562 -120.375 65.015625 -122.1875 57.765625 -122.1875 C 51.191406 -122.1875 45.820312 -120.507812 41.65625 -117.15625 C 37.5 -113.800781 35.421875 -108.96875 35.421875 -102.65625 C 35.421875 -98.363281 36.726562 -94.84375 39.34375 -92.09375 C 41.96875 -89.34375 45.289062 -87.160156 49.3125 -85.546875 C 53.34375 -83.941406 58.847656 -82.195312 65.828125 -80.3125 C 75.085938 -77.769531 82.632812 -75.222656 88.46875 -72.671875 C 94.300781 -70.117188 99.265625 -66.191406 103.359375 -60.890625 C 107.453125 -55.585938 109.5 -48.507812 109.5 -39.65625 C 109.5 -32.539062 107.585938 -25.828125 103.765625 -19.515625 C 99.941406 -13.210938 94.375 -8.148438 87.0625 -4.328125 C 79.75 -0.503906 71.125 1.40625 61.1875 1.40625 Z M 61.1875 1.40625 "/></g></g></g><g fill="#ffffff" fill-opacity="1"><g transform="translate(1577.986566, 367.660254)"><g><path d="M 105.484375 -139.90625 L 105.484375 -121.1875 L 68.234375 -121.1875 L 68.234375 0 L 45.296875 0 L 45.296875 -121.1875 L 7.84375 -121.1875 L 7.84375 -139.90625 Z M 105.484375 -139.90625 "/></g></g></g><g fill="#ffffff" fill-opacity="1"><g transform="translate(1701.785907, 367.660254)"><g><path d="M 38.046875 -121.375 L 38.046875 -80.3125 L 86.359375 -80.3125 L 86.359375 -61.59375 L 38.046875 -61.59375 L 38.046875 -18.71875 L 92.390625 -18.71875 L 92.390625 0 L 15.09375 0 L 15.09375 -140.109375 L 92.390625 -140.109375 L 92.390625 -121.375 Z M 38.046875 -121.375 "/></g></g></g><g fill="#ffffff" fill-opacity="1"><g transform="translate(1817.533368, 367.660254)"><g><path d="M 87.765625 0 L 55.5625 -55.953125 L 38.046875 -55.953125 L 38.046875 0 L 15.09375 0 L 15.09375 -139.90625 L 63.40625 -139.90625 C 74.144531 -139.90625 83.238281 -138.023438 90.6875 -134.265625 C 98.132812 -130.503906 103.703125 -125.46875 107.390625 -119.15625 C 111.078125 -112.851562 112.921875 -105.8125 112.921875 -98.03125 C 112.921875 -88.90625 110.269531 -80.617188 104.96875 -73.171875 C 99.675781 -65.722656 91.523438 -60.65625 80.515625 -57.96875 L 115.140625 0 Z M 38.046875 -74.28125 L 63.40625 -74.28125 C 72 -74.28125 78.472656 -76.425781 82.828125 -80.71875 C 87.191406 -85.007812 89.375 -90.78125 89.375 -98.03125 C 89.375 -105.28125 87.226562 -110.953125 82.9375 -115.046875 C 78.644531 -119.140625 72.132812 -121.1875 63.40625 -121.1875 L 38.046875 -121.1875 Z M 38.046875 -74.28125 "/></g></g></g><g fill="#ffffff" fill-opacity="1"><g transform="translate(1955.021216, 367.660254)"><g><path d="M 61.1875 1.40625 C 51.800781 1.40625 43.347656 -0.234375 35.828125 -3.515625 C 28.316406 -6.804688 22.410156 -11.472656 18.109375 -17.515625 C 13.816406 -23.554688 11.671875 -30.601562 11.671875 -38.65625 L 36.234375 -38.65625 C 36.765625 -32.613281 39.144531 -27.644531 43.375 -23.75 C 47.601562 -19.863281 53.539062 -17.921875 61.1875 -17.921875 C 69.113281 -17.921875 75.289062 -19.832031 79.71875 -23.65625 C 84.144531 -27.476562 86.359375 -32.410156 86.359375 -38.453125 C 86.359375 -43.148438 84.984375 -46.972656 82.234375 -49.921875 C 79.484375 -52.867188 76.0625 -55.148438 71.96875 -56.765625 C 67.875 -58.378906 62.203125 -60.125 54.953125 -62 C 45.828125 -64.414062 38.410156 -66.863281 32.703125 -69.34375 C 27.003906 -71.832031 22.140625 -75.691406 18.109375 -80.921875 C 14.085938 -86.148438 12.078125 -93.128906 12.078125 -101.859375 C 12.078125 -109.910156 14.085938 -116.953125 18.109375 -122.984375 C 22.140625 -129.023438 27.773438 -133.65625 35.015625 -136.875 C 42.265625 -140.101562 50.65625 -141.71875 60.1875 -141.71875 C 73.738281 -141.71875 84.84375 -138.328125 93.5 -131.546875 C 102.15625 -124.765625 106.953125 -115.472656 107.890625 -103.671875 L 82.53125 -103.671875 C 82.125 -108.765625 79.707031 -113.125 75.28125 -116.75 C 70.851562 -120.375 65.015625 -122.1875 57.765625 -122.1875 C 51.191406 -122.1875 45.820312 -120.507812 41.65625 -117.15625 C 37.5 -113.800781 35.421875 -108.96875 35.421875 -102.65625 C 35.421875 -98.363281 36.726562 -94.84375 39.34375 -92.09375 C 41.96875 -89.34375 45.289062 -87.160156 49.3125 -85.546875 C 53.34375 -83.941406 58.847656 -82.195312 65.828125 -80.3125 C 75.085938 -77.769531 82.632812 -75.222656 88.46875 -72.671875 C 94.300781 -70.117188 99.265625 -66.191406 103.359375 -60.890625 C 107.453125 -55.585938 109.5 -48.507812 109.5 -39.65625 C 109.5 -32.539062 107.585938 -25.828125 103.765625 -19.515625 C 99.941406 -13.210938 94.375 -8.148438 87.0625 -4.328125 C 79.75 -0.503906 71.125 1.40625 61.1875 1.40625 Z M 61.1875 1.40625 "/></g></g></g><g fill="#ffffff" fill-opacity="1"><g transform="translate(418.499989, 582.910243)"><g><path d="M 78.90625 1.40625 C 65.882812 1.40625 53.90625 -1.644531 42.96875 -7.75 C 32.039062 -13.851562 23.390625 -22.375 17.015625 -33.3125 C 10.640625 -44.25 7.453125 -56.5625 7.453125 -70.25 C 7.453125 -83.9375 10.640625 -96.210938 17.015625 -107.078125 C 23.390625 -117.953125 32.039062 -126.441406 42.96875 -132.546875 C 53.90625 -138.660156 65.882812 -141.71875 78.90625 -141.71875 C 92.0625 -141.71875 104.109375 -138.660156 115.046875 -132.546875 C 125.984375 -126.441406 134.601562 -117.953125 140.90625 -107.078125 C 147.21875 -96.210938 150.375 -83.9375 150.375 -70.25 C 150.375 -56.5625 147.21875 -44.25 140.90625 -33.3125 C 134.601562 -22.375 125.984375 -13.851562 115.046875 -7.75 C 104.109375 -1.644531 92.0625 1.40625 78.90625 1.40625 Z M 78.90625 -18.515625 C 88.164062 -18.515625 96.414062 -20.628906 103.65625 -24.859375 C 110.90625 -29.085938 116.578125 -35.125 120.671875 -42.96875 C 124.765625 -50.820312 126.8125 -59.914062 126.8125 -70.25 C 126.8125 -80.582031 124.765625 -89.640625 120.671875 -97.421875 C 116.578125 -105.210938 110.90625 -111.1875 103.65625 -115.34375 C 96.414062 -119.5 88.164062 -121.578125 78.90625 -121.578125 C 69.644531 -121.578125 61.390625 -119.5 54.140625 -115.34375 C 46.898438 -111.1875 41.234375 -105.210938 37.140625 -97.421875 C 33.046875 -89.640625 31 -80.582031 31 -70.25 C 31 -59.914062 33.046875 -50.820312 37.140625 -42.96875 C 41.234375 -35.125 46.898438 -29.085938 54.140625 -24.859375 C 61.390625 -20.628906 69.644531 -18.515625 78.90625 -18.515625 Z M 78.90625 -18.515625 "/></g></g></g><g fill="#ffffff" fill-opacity="1"><g transform="translate(586.585293, 582.910243)"><g><path d="M 97.421875 -139.90625 L 97.421875 -121.1875 L 38.046875 -121.1875 L 38.046875 -79.921875 L 84.34375 -79.921875 L 84.34375 -61.1875 L 38.046875 -61.1875 L 38.046875 0 L 15.09375 0 L 15.09375 -139.90625 Z M 97.421875 -139.90625 "/></g></g></g><g fill="#ffffff" fill-opacity="1"><g transform="translate(700.520983, 582.910243)"><g/></g></g><g fill="#ffffff" fill-opacity="1"><g transform="translate(763.125243, 582.910243)"><g><path d="M 126.8125 -139.90625 L 126.8125 0 L 103.875 0 L 103.875 -61.1875 L 38.046875 -61.1875 L 38.046875 0 L 15.09375 0 L 15.09375 -139.90625 L 38.046875 -139.90625 L 38.046875 -79.921875 L 103.875 -79.921875 L 103.875 -139.90625 Z M 126.8125 -139.90625 "/></g></g></g><g fill="#ffffff" fill-opacity="1"><g transform="translate(915.307855, 582.910243)"><g><path d="M 78.90625 1.40625 C 65.882812 1.40625 53.90625 -1.644531 42.96875 -7.75 C 32.039062 -13.851562 23.390625 -22.375 17.015625 -33.3125 C 10.640625 -44.25 7.453125 -56.5625 7.453125 -70.25 C 7.453125 -83.9375 10.640625 -96.210938 17.015625 -107.078125 C 23.390625 -117.953125 32.039062 -126.441406 42.96875 -132.546875 C 53.90625 -138.660156 65.882812 -141.71875 78.90625 -141.71875 C 92.0625 -141.71875 104.109375 -138.660156 115.046875 -132.546875 C 125.984375 -126.441406 134.601562 -117.953125 140.90625 -107.078125 C 147.21875 -96.210938 150.375 -83.9375 150.375 -70.25 C 150.375 -56.5625 147.21875 -44.25 140.90625 -33.3125 C 134.601562 -22.375 125.984375 -13.851562 115.046875 -7.75 C 104.109375 -1.644531 92.0625 1.40625 78.90625 1.40625 Z M 78.90625 -18.515625 C 88.164062 -18.515625 96.414062 -20.628906 103.65625 -24.859375 C 110.90625 -29.085938 116.578125 -35.125 120.671875 -42.96875 C 124.765625 -50.820312 126.8125 -59.914062 126.8125 -70.25 C 126.8125 -80.582031 124.765625 -89.640625 120.671875 -97.421875 C 116.578125 -105.210938 110.90625 -111.1875 103.65625 -115.34375 C 96.414062 -119.5 88.164062 -121.578125 78.90625 -121.578125 C 69.644531 -121.578125 61.390625 -119.5 54.140625 -115.34375 C 46.898438 -111.1875 41.234375 -105.210938 37.140625 -97.421875 C 33.046875 -89.640625 31 -80.582031 31 -70.25 C 31 -59.914062 33.046875 -50.820312 37.140625 -42.96875 C 41.234375 -35.125 46.898438 -29.085938 54.140625 -24.859375 C 61.390625 -20.628906 69.644531 -18.515625 78.90625 -18.515625 Z M 78.90625 -18.515625 "/></g></g></g><g fill="#ffffff" fill-opacity="1"><g transform="translate(1083.393174, 582.910243)"><g><path d="M 37.84375 -139.90625 L 37.84375 -50.734375 C 37.84375 -40.128906 40.625 -32.140625 46.1875 -26.765625 C 51.757812 -21.398438 59.515625 -18.71875 69.453125 -18.71875 C 79.515625 -18.71875 87.328125 -21.398438 92.890625 -26.765625 C 98.460938 -32.140625 101.25 -40.128906 101.25 -50.734375 L 101.25 -139.90625 L 124.203125 -139.90625 L 124.203125 -51.125 C 124.203125 -39.71875 121.71875 -30.054688 116.75 -22.140625 C 111.78125 -14.222656 105.132812 -8.316406 96.8125 -4.421875 C 88.5 -0.535156 79.3125 1.40625 69.25 1.40625 C 59.1875 1.40625 50.023438 -0.535156 41.765625 -4.421875 C 33.515625 -8.316406 26.972656 -14.222656 22.140625 -22.140625 C 17.304688 -30.054688 14.890625 -39.71875 14.890625 -51.125 L 14.890625 -139.90625 Z M 37.84375 -139.90625 "/></g></g></g><g fill="#ffffff" fill-opacity="1"><g transform="translate(1232.556287, 582.910243)"><g><path d="M 61.1875 1.40625 C 51.800781 1.40625 43.347656 -0.234375 35.828125 -3.515625 C 28.316406 -6.804688 22.410156 -11.472656 18.109375 -17.515625 C 13.816406 -23.554688 11.671875 -30.601562 11.671875 -38.65625 L 36.234375 -38.65625 C 36.765625 -32.613281 39.144531 -27.644531 43.375 -23.75 C 47.601562 -19.863281 53.539062 -17.921875 61.1875 -17.921875 C 69.113281 -17.921875 75.289062 -19.832031 79.71875 -23.65625 C 84.144531 -27.476562 86.359375 -32.410156 86.359375 -38.453125 C 86.359375 -43.148438 84.984375 -46.972656 82.234375 -49.921875 C 79.484375 -52.867188 76.0625 -55.148438 71.96875 -56.765625 C 67.875 -58.378906 62.203125 -60.125 54.953125 -62 C 45.828125 -64.414062 38.410156 -66.863281 32.703125 -69.34375 C 27.003906 -71.832031 22.140625 -75.691406 18.109375 -80.921875 C 14.085938 -86.148438 12.078125 -93.128906 12.078125 -101.859375 C 12.078125 -109.910156 14.085938 -116.953125 18.109375 -122.984375 C 22.140625 -129.023438 27.773438 -133.65625 35.015625 -136.875 C 42.265625 -140.101562 50.65625 -141.71875 60.1875 -141.71875 C 73.738281 -141.71875 84.84375 -138.328125 93.5 -131.546875 C 102.15625 -124.765625 106.953125 -115.472656 107.890625 -103.671875 L 82.53125 -103.671875 C 82.125 -108.765625 79.707031 -113.125 75.28125 -116.75 C 70.851562 -120.375 65.015625 -122.1875 57.765625 -122.1875 C 51.191406 -122.1875 45.820312 -120.507812 41.65625 -117.15625 C 37.5 -113.800781 35.421875 -108.96875 35.421875 -102.65625 C 35.421875 -98.363281 36.726562 -94.84375 39.34375 -92.09375 C 41.96875 -89.34375 45.289062 -87.160156 49.3125 -85.546875 C 53.34375 -83.941406 58.847656 -82.195312 65.828125 -80.3125 C 75.085938 -77.769531 82.632812 -75.222656 88.46875 -72.671875 C 94.300781 -70.117188 99.265625 -66.191406 103.359375 -60.890625 C 107.453125 -55.585938 109.5 -48.507812 109.5 -39.65625 C 109.5 -32.539062 107.585938 -25.828125 103.765625 -19.515625 C 99.941406 -13.210938 94.375 -8.148438 87.0625 -4.328125 C 79.75 -0.503906 71.125 1.40625 61.1875 1.40625 Z M 61.1875 1.40625 "/></g></g></g><g fill="#ffffff" fill-opacity="1"><g transform="translate(1364.4076, 582.910243)"><g><path d="M 105.484375 -139.90625 L 105.484375 -121.1875 L 68.234375 -121.1875 L 68.234375 0 L 45.296875 0 L 45.296875 -121.1875 L 7.84375 -121.1875 L 7.84375 -139.90625 Z M 105.484375 -139.90625 "/></g></g></g><g fill="#ffffff" fill-opacity="1"><g transform="translate(1488.206941, 582.910243)"><g><path d="M 78.90625 1.40625 C 65.882812 1.40625 53.90625 -1.644531 42.96875 -7.75 C 32.039062 -13.851562 23.390625 -22.375 17.015625 -33.3125 C 10.640625 -44.25 7.453125 -56.5625 7.453125 -70.25 C 7.453125 -83.9375 10.640625 -96.210938 17.015625 -107.078125 C 23.390625 -117.953125 32.039062 -126.441406 42.96875 -132.546875 C 53.90625 -138.660156 65.882812 -141.71875 78.90625 -141.71875 C 92.0625 -141.71875 104.109375 -138.660156 115.046875 -132.546875 C 125.984375 -126.441406 134.601562 -117.953125 140.90625 -107.078125 C 147.21875 -96.210938 150.375 -83.9375 150.375 -70.25 C 150.375 -56.5625 147.21875 -44.25 140.90625 -33.3125 C 134.601562 -22.375 125.984375 -13.851562 115.046875 -7.75 C 104.109375 -1.644531 92.0625 1.40625 78.90625 1.40625 Z M 78.90625 -18.515625 C 88.164062 -18.515625 96.414062 -20.628906 103.65625 -24.859375 C 110.90625 -29.085938 116.578125 -35.125 120.671875 -42.96875 C 124.765625 -50.820312 126.8125 -59.914062 126.8125 -70.25 C 126.8125 -80.582031 124.765625 -89.640625 120.671875 -97.421875 C 116.578125 -105.210938 110.90625 -111.1875 103.65625 -115.34375 C 96.414062 -119.5 88.164062 -121.578125 78.90625 -121.578125 C 69.644531 -121.578125 61.390625 -119.5 54.140625 -115.34375 C 46.898438 -111.1875 41.234375 -105.210938 37.140625 -97.421875 C 33.046875 -89.640625 31 -80.582031 31 -70.25 C 31 -59.914062 33.046875 -50.820312 37.140625 -42.96875 C 41.234375 -35.125 46.898438 -29.085938 54.140625 -24.859375 C 61.390625 -20.628906 69.644531 -18.515625 78.90625 -18.515625 Z M 78.90625 -18.515625 "/></g></g></g><g fill="#ffffff" fill-opacity="1"><g transform="translate(1656.29226, 582.910243)"><g><path d="M 130.03125 0 L 107.09375 0 L 38.046875 -104.46875 L 38.046875 0 L 15.09375 0 L 15.09375 -140.109375 L 38.046875 -140.109375 L 107.09375 -35.828125 L 107.09375 -140.109375 L 130.03125 -140.109375 Z M 130.03125 0 "/></g></g></g><g fill="#ffffff" fill-opacity="1"><g transform="translate(1807.906453, 533.518412)"><g><path d="M 32.90625 -89.5625 C 37.988281 -89.5625 42.539062 -88.414062 46.5625 -86.125 C 50.582031 -83.84375 53.710938 -80.691406 55.953125 -76.671875 C 58.203125 -72.648438 59.328125 -68.097656 59.328125 -63.015625 C 59.328125 -57.929688 58.203125 -53.378906 55.953125 -49.359375 C 53.710938 -45.335938 50.582031 -42.179688 46.5625 -39.890625 C 42.539062 -37.609375 37.988281 -36.46875 32.90625 -36.46875 C 27.820312 -36.46875 23.269531 -37.609375 19.25 -39.890625 C 15.226562 -42.179688 12.070312 -45.335938 9.78125 -49.359375 C 7.5 -53.378906 6.359375 -57.929688 6.359375 -63.015625 C 6.359375 -68.097656 7.5 -72.648438 9.78125 -76.671875 C 12.070312 -80.691406 15.226562 -83.84375 19.25 -86.125 C 23.269531 -88.414062 27.820312 -89.5625 32.90625 -89.5625 Z M 32.90625 -42.3125 C 39 -42.3125 43.890625 -44.210938 47.578125 -48.015625 C 51.265625 -51.828125 53.109375 -56.828125 53.109375 -63.015625 C 53.109375 -69.203125 51.265625 -74.195312 47.578125 -78 C 43.890625 -81.8125 39 -83.71875 32.90625 -83.71875 C 26.71875 -83.71875 21.800781 -81.8125 18.15625 -78 C 14.519531 -74.195312 12.703125 -69.203125 12.703125 -63.015625 C 12.703125 -56.828125 14.519531 -51.828125 18.15625 -48.015625 C 21.800781 -44.210938 26.71875 -42.3125 32.90625 -42.3125 Z M 44.59375 -68.09375 C 44.59375 -66.226562 44.125 -64.597656 43.1875 -63.203125 C 42.257812 -61.804688 40.992188 -60.769531 39.390625 -60.09375 L 46.125 -49.671875 L 36.46875 -49.671875 L 30.875 -59.203125 L 29.984375 -59.203125 L 29.984375 -49.671875 L 21.984375 -49.671875 L 21.984375 -76.984375 L 34.8125 -76.984375 C 37.769531 -76.984375 40.140625 -76.15625 41.921875 -74.5 C 43.703125 -72.851562 44.59375 -70.71875 44.59375 -68.09375 Z M 29.984375 -65.6875 L 34.296875 -65.6875 C 34.972656 -65.6875 35.546875 -65.875 36.015625 -66.25 C 36.484375 -66.632812 36.71875 -67.164062 36.71875 -67.84375 C 36.71875 -68.519531 36.484375 -69.023438 36.015625 -69.359375 C 35.546875 -69.703125 34.972656 -69.875 34.296875 -69.875 L 29.984375 -69.875 Z M 29.984375 -65.6875 "/></g></g></g><g clip-path="url(#ca23483191)"><path fill="#ffffff" d="M 79.0625 607.398438 L 79.0625 221.578125 C 79.0625 217.105469 82.6875 213.476562 87.160156 213.476562 L 271.683594 213.476562 C 276.15625 213.476562 279.78125 217.105469 279.78125 221.578125 L 279.78125 607.398438 C 279.78125 611.871094 276.15625 615.496094 271.683594 615.496094 L 87.160156 615.496094 C 82.6875 615.496094 79.0625 611.871094 79.0625 607.398438 Z M 79.0625 607.398438 " fill-opacity="1" fill-rule="nonzero"/></g><g clip-path="url(#a3fe6bcdc5)"><path fill="#ffffff" d="M 364.089844 607.398438 L 364.089844 221.578125 C 364.089844 217.105469 360.464844 213.476562 355.992188 213.476562 L 171.46875 213.476562 C 166.996094 213.476562 163.371094 217.105469 163.371094 221.578125 L 163.371094 607.398438 C 163.371094 611.871094 166.996094 615.496094 171.46875 615.496094 L 355.992188 615.496094 C 360.464844 615.496094 364.089844 611.871094 364.089844 607.398438 Z M 364.089844 607.398438 " fill-opacity="1" fill-rule="nonzero"/></g><g clip-path="url(#c614577699)"><path fill="#545454" d="M 200.660156 423.914062 C 200.660156 424.652344 200.585938 425.382812 200.445312 426.105469 C 200.300781 426.832031 200.085938 427.535156 199.804688 428.21875 C 199.519531 428.898438 199.175781 429.546875 198.761719 430.164062 C 198.351562 430.777344 197.886719 431.34375 197.363281 431.867188 C 196.84375 432.390625 196.273438 432.855469 195.660156 433.265625 C 195.046875 433.675781 194.398438 434.023438 193.714844 434.304688 C 193.03125 434.589844 192.328125 434.800781 191.605469 434.945312 C 190.878906 435.089844 190.148438 435.164062 189.410156 435.164062 C 188.671875 435.164062 187.9375 435.089844 187.214844 434.945312 C 186.492188 434.800781 185.785156 434.589844 185.105469 434.304688 C 184.421875 434.023438 183.773438 433.675781 183.160156 433.265625 C 182.546875 432.855469 181.976562 432.390625 181.453125 431.867188 C 180.933594 431.34375 180.464844 430.777344 180.054688 430.164062 C 179.644531 429.546875 179.296875 428.898438 179.015625 428.21875 C 178.734375 427.535156 178.519531 426.832031 178.375 426.105469 C 178.230469 425.382812 178.160156 424.652344 178.160156 423.914062 C 178.160156 423.171875 178.230469 422.441406 178.375 421.71875 C 178.519531 420.992188 178.734375 420.289062 179.015625 419.605469 C 179.296875 418.925781 179.644531 418.277344 180.054688 417.664062 C 180.464844 417.046875 180.933594 416.480469 181.453125 415.957031 C 181.976562 415.433594 182.546875 414.96875 183.160156 414.558594 C 183.773438 414.148438 184.421875 413.800781 185.105469 413.519531 C 185.785156 413.234375 186.492188 413.023438 187.214844 412.878906 C 187.9375 412.734375 188.671875 412.664062 189.410156 412.664062 C 190.148438 412.664062 190.878906 412.734375 191.605469 412.878906 C 192.328125 413.023438 193.03125 413.234375 193.714844 413.519531 C 194.398438 413.800781 195.046875 414.148438 195.660156 414.558594 C 196.273438 414.96875 196.84375 415.433594 197.363281 415.957031 C 197.886719 416.480469 198.351562 417.046875 198.761719 417.664062 C 199.175781 418.277344 199.519531 418.925781 199.804688 419.605469 C 200.085938 420.289062 200.300781 420.992188 200.445312 421.71875 C 200.585938 422.441406 200.660156 423.171875 200.660156 423.914062 Z M 200.660156 423.914062 " fill-opacity="1" fill-rule="nonzero"/></g><g clip-path="url(#d8ecadfcdc)"><path fill="#545454" d="M 268.046875 423.914062 C 268.046875 424.652344 267.976562 425.382812 267.832031 426.105469 C 267.6875 426.832031 267.472656 427.535156 267.191406 428.21875 C 266.910156 428.898438 266.5625 429.546875 266.152344 430.164062 C 265.742188 430.777344 265.273438 431.34375 264.753906 431.867188 C 264.230469 432.390625 263.660156 432.855469 263.046875 433.265625 C 262.433594 433.675781 261.785156 434.023438 261.101562 434.304688 C 260.421875 434.589844 259.714844 434.800781 258.992188 434.945312 C 258.265625 435.089844 257.535156 435.164062 256.796875 435.164062 C 256.058594 435.164062 255.328125 435.089844 254.601562 434.945312 C 253.878906 434.800781 253.175781 434.589844 252.492188 434.304688 C 251.808594 434.023438 251.160156 433.675781 250.546875 433.265625 C 249.933594 432.855469 249.363281 432.390625 248.84375 431.867188 C 248.320312 431.34375 247.855469 430.777344 247.441406 430.164062 C 247.03125 429.546875 246.6875 428.898438 246.402344 428.21875 C 246.121094 427.535156 245.90625 426.832031 245.761719 426.105469 C 245.621094 425.382812 245.546875 424.652344 245.546875 423.914062 C 245.546875 423.171875 245.621094 422.441406 245.761719 421.71875 C 245.90625 420.992188 246.121094 420.289062 246.402344 419.605469 C 246.6875 418.925781 247.03125 418.277344 247.441406 417.664062 C 247.855469 417.046875 248.320312 416.480469 248.84375 415.957031 C 249.363281 415.433594 249.933594 414.96875 250.546875 414.558594 C 251.160156 414.148438 251.808594 413.800781 252.492188 413.519531 C 253.175781 413.234375 253.878906 413.023438 254.601562 412.878906 C 255.328125 412.734375 256.058594 412.664062 256.796875 412.664062 C 257.535156 412.664062 258.265625 412.734375 258.992188 412.878906 C 259.714844 413.023438 260.421875 413.234375 261.101562 413.519531 C 261.785156 413.800781 262.433594 414.148438 263.046875 414.558594 C 263.660156 414.96875 264.230469 415.433594 264.753906 415.957031 C 265.273438 416.480469 265.742188 417.046875 266.152344 417.664062 C 266.5625 418.277344 266.910156 418.925781 267.191406 419.605469 C 267.472656 420.289062 267.6875 420.992188 267.832031 421.71875 C 267.976562 422.441406 268.046875 423.171875 268.046875 423.914062 Z M 268.046875 423.914062 " fill-opacity="1" fill-rule="nonzero"/></g></svg>